<svg xmlns="http://www.w3.org/2000/svg" viewBox="0 0 100 100">
  <defs>
    <radialGradient id="bg" cx="50%" cy="40%" r="50%">
      <stop offset="0%" stop-color="#3a3a3c"/>
      <stop offset="100%" stop-color="#1c1c1e"/>
    </radialGradient>
  </defs>
  <!-- Dark rounded square badge -->
  <rect x="2" y="2" width="96" height="96" rx="20" fill="url(#bg)" stroke="#f5a623" stroke-width="2"/>
  <!-- Angkor Wat 3-tower silhouette -->
  <!-- Center tower -->
  <rect x="41" y="28" width="18" height="30" rx="2" fill="#f5a623"/>
  <path d="M41 35 L50 22 L59 35Z" fill="#f5a623"/>
  <rect x="46" y="22" width="8" height="16" rx="3" fill="#1c1c1e"/>
  <circle cx="50" cy="18" r="4" fill="#f5a623"/>
  <!-- Left tower -->
  <rect x="22" y="38" width="14" height="20" rx="1.5" fill="#f5a623"/>
  <path d="M22 43 L29 33 L36 43Z" fill="#f5a623"/>
  <rect x="26" y="33" width="6" height="12" rx="2" fill="#1c1c1e"/>
  <circle cx="29" cy="30" r="3" fill="#f5a623"/>
  <!-- Right tower -->
  <rect x="64" y="38" width="14" height="20" rx="1.5" fill="#f5a623"/>
  <path d="M64 43 L71 33 L78 43Z" fill="#f5a623"/>
  <rect x="68" y="33" width="6" height="12" rx="2" fill="#1c1c1e"/>
  <circle cx="71" cy="30" r="3" fill="#f5a623"/>
  <!-- Base platform -->
  <rect x="18" y="56" width="64" height="5" rx="1.5" fill="#f5a623"/>
  <!-- Location pin bottom -->
  <path d="M42 62 L50 72 L58 62Z" fill="#f5a623"/>
</svg>
