<svg xmlns="http://www.w3.org/2000/svg" viewBox="0 0 40 56">
  <!-- Map pin body (teardrop shape) -->
  <path d="M20 2 C9.5 2 2 10 2 20 C2 32 14 46 20 54 C26 46 38 32 38 20 C38 10 30.5 2 20 2Z" fill="#f5a623" stroke="#1c1c1e" stroke-width="1.5"/>
  <!-- Inner dark circle -->
  <circle cx="20" cy="19" r="9" fill="#1c1c1e"/>
  <!-- Angkor Wat 3 towers inside pin -->
  <rect x="17" y="13" width="6" height="10" fill="#f5a623"/>
  <path d="M17 16 L20 11 L23 16Z" fill="#f5a623"/>
  <rect x="19" y="11" width="2" height="6" rx="1" fill="#1c1c1e"/>
  <circle cx="20" cy="9" r="1.8" fill="#f5a623"/>
  <rect x="11" y="16" width="4.5" height="7" fill="#f5a623"/>
  <path d="M11 18 L13.25 15 L15.5 18Z" fill="#f5a623"/>
  <rect x="12.5" y="15" width="1.5" height="4" rx="0.8" fill="#1c1c1e"/>
  <circle cx="13.25" cy="13.5" r="1.2" fill="#f5a623"/>
  <rect x="24.5" y="16" width="4.5" height="7" fill="#f5a623"/>
  <path d="M24.5 18 L26.75 15 L29 18Z" fill="#f5a623"/>
  <rect x="26" y="15" width="1.5" height="4" rx="0.8" fill="#1c1c1e"/>
  <circle cx="26.75" cy="13.5" r="1.2" fill="#f5a623"/>
</svg>
